<?xml version="1.0" standalone="no"?>
<!DOCTYPE svg PUBLIC "-//W3C//DTD SVG 20010904//EN"
 "http://www.w3.org/TR/2001/REC-SVG-20010904/DTD/svg10.dtd">
<svg version="1.0" xmlns="http://www.w3.org/2000/svg"
 width="512.000000pt" height="512.000000pt" viewBox="0 0 512.000000 512.000000"
 preserveAspectRatio="xMidYMid meet">

<g transform="translate(0.000000,512.000000) scale(0.100000,-0.100000)"
fill="#000000" stroke="none">
<path d="M1910 5110 c-474 -18 -786 -50 -882 -92 -183 -78 -298 -455 -298
-975 l0 -153 -25 0 c-30 0 -43 24 -24 46 18 21 24 172 9 218 -21 65 -47 76
-174 76 -125 0 -148 -9 -172 -66 -18 -44 -18 -175 0 -219 13 -30 13 -38 1 -62
-12 -23 -15 -88 -15 -338 0 -413 -3 -408 198 -403 110 3 115 4 137 31 13 15
33 27 45 27 20 0 20 -3 20 -524 0 -507 1 -524 20 -548 11 -14 38 -33 60 -42
l40 -16 0 -64 0 -64 -47 -12 c-64 -16 -108 -44 -123 -79 -8 -21 -11 -186 -8
-657 4 -604 5 -632 25 -706 22 -77 64 -171 83 -183 6 -4 10 -56 10 -126 0
-120 0 -121 30 -150 l30 -30 229 3 c284 4 274 -1 279 138 l4 90 1199 0 1199 0
0 -84 c0 -75 3 -88 24 -113 l24 -28 231 -3 231 -3 30 30 c30 29 30 30 30 150
0 70 4 122 10 126 19 12 61 106 82 183 21 74 22 103 26 706 3 472 1 635 -8
657 -15 35 -59 63 -122 79 l-48 12 0 64 0 64 40 16 c22 9 49 28 60 42 19 24
20 41 20 548 0 521 0 524 20 524 12 0 32 -12 45 -27 22 -27 27 -28 137 -31
129 -3 154 5 180 58 16 31 18 70 18 345 0 250 -3 315 -15 338 -12 24 -12 32 1
62 18 44 18 175 0 219 -24 57 -47 66 -172 66 -127 0 -153 -11 -174 -76 -15
-46 -9 -197 9 -218 19 -22 6 -46 -24 -46 l-25 0 0 153 c0 521 -115 897 -299
975 -82 36 -272 59 -661 82 -233 14 -1237 21 -1520 10z m2266 -666 c82 -39 94
-137 94 -777 0 -533 0 -536 -51 -563 -42 -21 -3276 -21 -3318 0 -51 27 -51 30
-51 563 0 637 12 737 92 776 30 15 174 17 1616 17 1446 0 1587 -1 1618 -16z
m-2762 -2517 c16 -12 20 -53 39 -406 15 -281 18 -397 10 -409 -9 -15 -32 -17
-189 -17 l-178 0 -13 25 c-19 37 -14 780 6 803 11 14 36 17 160 17 106 0 152
-4 165 -13z m2623 -17 c18 -36 18 -754 0 -790 l-13 -25 -178 0 c-158 0 -180 2
-190 17 -7 12 -4 126 11 409 19 356 22 394 39 406 14 10 55 13 168 11 149 -3
151 -3 163 -28z m-519 -112 c15 -15 15 -61 0 -76 -17 -17 -1899 -17 -1916 0
-7 7 -12 24 -12 38 0 14 5 31 12 38 17 17 1899 17 1916 0z m-3 -243 l0 -40
-955 0 -955 0 -3 28 c-7 61 -80 57 960 55 l953 -3 0 -40z m-7 -198 c7 -60 65
-57 -947 -57 -708 0 -930 3 -939 12 -13 13 -16 60 -5 71 3 4 430 6 947 5 l941
-3 3 -28z m-15 -188 c5 -9 7 -28 3 -42 l-6 -27 -929 0 c-1004 0 -941 -3 -941
49 0 42 -16 41 943 39 829 -3 921 -5 930 -19z"/>
</g>
</svg>
